<?xml version="1.0" encoding="UTF-8"?>
<svg xmlns="http://www.w3.org/2000/svg" viewBox="0 0 32 32" width="32" height="32">
  <!-- 背景圆形 -->
  <circle cx="16" cy="16" r="15" fill="url(#bgGradient)" stroke="#e5e7eb" stroke-width="1"/>
  
  <!-- 渐变定义 -->
  <defs>
    <linearGradient id="bgGradient" x1="0%" y1="0%" x2="100%" y2="100%">
      <stop offset="0%" style="stop-color:#f0f9ff;stop-opacity:1" />
      <stop offset="100%" style="stop-color:#e0f2fe;stop-opacity:1" />
    </linearGradient>
    <linearGradient id="tableGradient" x1="0%" y1="0%" x2="100%" y2="100%">
      <stop offset="0%" style="stop-color:#3b82f6;stop-opacity:1" />
      <stop offset="100%" style="stop-color:#1d4ed8;stop-opacity:1" />
    </linearGradient>
  </defs>
  
  <!-- 表格框架 -->
  <rect x="6" y="8" width="20" height="16" rx="2" ry="2" 
        fill="none" stroke="url(#tableGradient)" stroke-width="1.5"/>
  
  <!-- 表格分隔线 -->
  <line x1="6" y1="14" x2="26" y2="14" stroke="#3b82f6" stroke-width="1"/>
  <line x1="6" y1="18" x2="26" y2="18" stroke="#3b82f6" stroke-width="1"/>
  <line x1="12" y1="8" x2="12" y2="24" stroke="#3b82f6" stroke-width="1"/>
  <line x1="20" y1="8" x2="20" y2="24" stroke="#3b82f6" stroke-width="1"/>
  
  <!-- 合并指示器 -->
  <rect x="7" y="10" width="4" height="2" rx="1" fill="#10b981" opacity="0.9"/>
  <rect x="21" y="10" width="4" height="2" rx="1" fill="#10b981" opacity="0.9"/>
  
  <!-- 魔法连接线 -->
  <path d="M9 11 Q16 6 23 11" stroke="#f59e0b" stroke-width="2" 
        fill="none" stroke-linecap="round"/>
  
  <!-- 魔法星星 -->
  <path d="M16 5 L16.5 6.5 L18 7 L16.5 7.5 L16 9 L15.5 7.5 L14 7 L15.5 6.5 Z" 
        fill="#f59e0b" opacity="0.8"/>
  
  <!-- 魔法点 -->
  <circle cx="9" cy="11" r="1" fill="#f59e0b"/>
  <circle cx="23" cy="11" r="1" fill="#f59e0b"/>
  
  <!-- 小魔法粒子 -->
  <circle cx="11" cy="9" r="0.5" fill="#06d6a0" opacity="0.7"/>
  <circle cx="21" cy="9" r="0.5" fill="#06d6a0" opacity="0.7"/>
  <circle cx="13" cy="13" r="0.5" fill="#8b5cf6" opacity="0.6"/>
  <circle cx="19" cy="13" r="0.5" fill="#8b5cf6" opacity="0.6"/>
</svg>